<?xml version="1.0" encoding="UTF-8"?> <svg xmlns="http://www.w3.org/2000/svg" viewBox="0 0 54.71 52.71"> <defs> <style>.cls-1{fill:none;stroke-width:0.16px;}.cls-1,.cls-2{stroke:#0dbaf7;stroke-miterlimit:10;}.cls-2{fill:#0dbaf7;}.cls-3{font-size:3px;fill:#fff;font-family:Geomanist-Regular, Geomanist;}</style> </defs> <title>Asset 47</title> <g id="Layer_2" data-name="Layer 2"> <g id="Quiet_curtains_Residential_" data-name="Quiet curtains (Residential)"> <path class="cls-1" d="M21.87,14.32a6.5,6.5,0,0,1,11,.3"></path> <path class="cls-1" d="M19.28,12.15a9.55,9.55,0,0,1,16.14.44"></path> <path class="cls-1" d="M17,9.53a12.28,12.28,0,0,1,20.76.57"></path> <path class="cls-1" d="M13.08,7.56a16.89,16.89,0,0,1,28.55.79"></path> <path class="cls-1" d="M21.87,38.38a6.48,6.48,0,0,0,11-.3"></path> <path class="cls-1" d="M19.28,40.56a9.55,9.55,0,0,0,16.14-.44"></path> <path class="cls-1" d="M17,43.18a12.28,12.28,0,0,0,20.76-.57"></path> <path class="cls-1" d="M13.08,45.15a16.9,16.9,0,0,0,28.55-.79"></path> <path class="cls-1" d="M14.32,20.87a6.5,6.5,0,0,0,.3,11"></path> <path class="cls-1" d="M12.15,18.28a9.55,9.55,0,0,0,.44,16.14"></path> <path class="cls-1" d="M9.53,16a12.28,12.28,0,0,0,.57,20.76"></path> <path class="cls-1" d="M7.56,12.08a16.89,16.89,0,0,0,.79,28.55"></path> <path class="cls-1" d="M40.38,20.87a6.48,6.48,0,0,1-.3,11"></path> <path class="cls-1" d="M42.56,18.28a9.55,9.55,0,0,1-.44,16.14"></path> <path class="cls-1" d="M45.18,16a12.28,12.28,0,0,1-.57,20.76"></path> <path class="cls-1" d="M47.15,12.08a16.9,16.9,0,0,1-.79,28.55"></path> <circle class="cls-2" cx="27.35" cy="26.35" r="10"></circle> <text class="cls-3" transform="translate(23.13 25.47)">Sound<tspan x="-3.08" y="3.6">Absorption</tspan></text> </g> </g> </svg> 