<?xml version="1.0" encoding="UTF-8"?> <svg xmlns="http://www.w3.org/2000/svg" viewBox="0 0 54.69 58.26"> <defs> <style>.cls-1{fill:#10487a;}</style> </defs> <title>Blackout</title> <g id="Layer_2" data-name="Layer 2"> <g id="Icons"> <path class="cls-1" d="M53.1,2.44V57.5a.81.81,0,0,0,1.62,0V2.44a.81.81,0,0,0-1.62,0Z" transform="translate(-0.04 -0.03)"></path> <path class="cls-1" d="M51.47,1.63V56.69a.82.82,0,0,0,1.63,0V1.63a.82.82,0,0,0-1.63,0Z" transform="translate(-0.04 -0.03)"></path> <path class="cls-1" d="M49.84.81V55.87a.82.82,0,0,0,1.63,0V.81a.82.82,0,0,0-1.63,0Z" transform="translate(-0.04 -0.03)"></path> <path class="cls-1" d="M1.1,10.66a18.71,18.71,0,0,1,18.5,18.5A18.7,18.7,0,0,1,1.1,47.65a1.1,1.1,0,0,0,0,2.2c11.25-.2,20.71-9.27,20.7-20.69A21,21,0,0,0,1.1,8.46a1.1,1.1,0,0,0,0,2.2Z" transform="translate(-0.04 -0.03)"></path> <path class="cls-1" d="M23,16.41a20.64,20.64,0,0,1,3.54-2,35.37,35.37,0,0,1,7.57-2.63,20.6,20.6,0,0,1,4-.58,21.3,21.3,0,0,1-3.53,2.05,36.11,36.11,0,0,1-3.71,1.52A36.91,36.91,0,0,1,27,15.83,20.7,20.7,0,0,1,23,16.41Z" transform="translate(-0.04 -0.03)"></path> <path class="cls-1" d="M23,42.29a20.7,20.7,0,0,1,4.05.58A36.91,36.91,0,0,1,30.9,44a36.11,36.11,0,0,1,3.71,1.52,21.3,21.3,0,0,1,3.53,2,21.38,21.38,0,0,1-4-.57,38.78,38.78,0,0,1-3.86-1.11,38.5,38.5,0,0,1-3.71-1.52A21.38,21.38,0,0,1,23,42.29Z" transform="translate(-0.04 -0.03)"></path> <path class="cls-1" d="M25.26,22.87a10.32,10.32,0,0,1,2.37-1.4,16.75,16.75,0,0,1,5.13-1.27,10.78,10.78,0,0,1,2.76.13,10.38,10.38,0,0,1-2.38,1.4A16.56,16.56,0,0,1,28,23,10.71,10.71,0,0,1,25.26,22.87Z" transform="translate(-0.04 -0.03)"></path> <path class="cls-1" d="M25.44,35.58a10.26,10.26,0,0,1,2.75-.12,16.18,16.18,0,0,1,5.13,1.26,10.38,10.38,0,0,1,2.38,1.4,10,10,0,0,1-2.76.13,15.12,15.12,0,0,1-2.61-.43A16.2,16.2,0,0,1,27.81,37,10.32,10.32,0,0,1,25.44,35.58Z" transform="translate(-0.04 -0.03)"></path> <path class="cls-1" d="M25.61,29.16a22.29,22.29,0,0,1,4.15-.78,38.28,38.28,0,0,1,4.14-.22,36.18,36.18,0,0,1,4.15.22,21.55,21.55,0,0,1,4.14.78,23.2,23.2,0,0,1-4.14.78,41.36,41.36,0,0,1-4.15.22,38.29,38.29,0,0,1-4.14-.23A22.27,22.27,0,0,1,25.61,29.16Z" transform="translate(-0.04 -0.03)"></path> </g> </g> </svg> 