<?xml version="1.0" encoding="UTF-8"?> <svg xmlns="http://www.w3.org/2000/svg" viewBox="0 0 183.38 235.68"> <defs> <style>.cls-1{fill:none;stroke:#0dbaf7;stroke-linecap:round;stroke-miterlimit:10;stroke-width:3px;}.cls-2{fill:#0aa5e8;}.cls-3{font-size:16px;fill:#fff;font-family:Geomanist-Light, Geomanist;}</style> </defs> <title>blocks</title> <g id="Layer_2" data-name="Layer 2"> <g id="Icons"> <path class="cls-1" d="M4,73.15a52.82,52.82,0,0,1,23.41,43.91A52.87,52.87,0,0,1,1.5,162.54"></path> <path class="cls-1" d="M21.7,52.08a77.72,77.72,0,0,1,34.45,64.61,77.78,77.78,0,0,1-38.08,66.92"></path> <path class="cls-1" d="M43.05,33.23a100,100,0,0,1,44.32,83.13,100,100,0,0,1-49,86.09"></path> <path class="cls-1" d="M59.1,1.5A137.53,137.53,0,0,1,120,115.81,137.58,137.58,0,0,1,52.68,234.18"></path> <circle class="cls-2" cx="127.38" cy="118.5" r="56"></circle> <text class="cls-3" transform="translate(105.6 104.33)">Blocks<tspan x="4.36" y="19.2">20dB</tspan><tspan x="-9.77" y="38.4">of Sound</tspan></text> </g> </g> </svg> 