<?xml version="1.0" encoding="UTF-8"?> <svg xmlns="http://www.w3.org/2000/svg" viewBox="0 0 53.98 61.84"> <defs> <style>.cls-1,.cls-3,.cls-4,.cls-5,.cls-6{fill:none;}.cls-2{fill:#10487a;}.cls-3,.cls-4,.cls-5,.cls-6{stroke:#10487a;stroke-miterlimit:10;}.cls-3,.cls-5{stroke-width:2px;}.cls-4{stroke-width:2.5px;}.cls-5,.cls-6{stroke-linecap:round;}</style> </defs> <title>Install</title> <g id="Layer_2" data-name="Layer 2"> <g id="Icons"> <path class="cls-1" d="M27,16.69h.06L27,9,14,1.12l-10.64,24L10.26,28A18.08,18.08,0,0,1,27,16.69Z"></path> <path class="cls-1" d="M13.1,29.14l1.42.59A13.47,13.47,0,0,1,27,21.3h.09V19.77H27A15,15,0,0,0,13.1,29.14Z"></path> <path class="cls-1" d="M17.36,30.92l1.41.59A8.86,8.86,0,0,1,27,25.91h.13V24.38H27A10.37,10.37,0,0,0,17.36,30.92Z"></path> <path class="cls-1" d="M19.48,31.81,27.19,35l-.06-8.35H27A8.08,8.08,0,0,0,19.48,31.81Z"></path> <path class="cls-1" d="M11,28.25l1.43.59A15.77,15.77,0,0,1,27,19h.08l0-1.54H27A17.32,17.32,0,0,0,11,28.25Z"></path> <path class="cls-1" d="M15.23,30l1.42.59A11.15,11.15,0,0,1,27,23.6h.11V22.07H27A12.7,12.7,0,0,0,15.23,30Z"></path> <path class="cls-2" d="M10.26,28l.71.3A17.32,17.32,0,0,1,27,17.46h.06v-.77H27A18.08,18.08,0,0,0,10.26,28Z"></path> <path class="cls-2" d="M12.4,28.84l.7.3A15,15,0,0,1,27,19.76h.08V19H27A15.77,15.77,0,0,0,12.4,28.84Z"></path> <path class="cls-2" d="M14.52,29.73l.71.3a12.7,12.7,0,0,1,11.76-8h.1V21.3H27A13.47,13.47,0,0,0,14.52,29.73Z"></path> <path class="cls-2" d="M16.65,30.62l.71.3A10.37,10.37,0,0,1,27,24.37h.12v-.77H27A11.15,11.15,0,0,0,16.65,30.62Z"></path> <path class="cls-2" d="M18.77,31.51l.71.3A8.08,8.08,0,0,1,27,26.68h.14v-.76H27A8.86,8.86,0,0,0,18.77,31.51Z"></path> <polygon class="cls-2" points="29.86 0 23.86 0 23.86 3.84 25.11 3.84 25.11 7.61 28.61 7.61 28.61 3.84 29.86 3.84 29.86 0"></polygon> <circle class="cls-2" cx="26.99" cy="34.79" r="1.47"></circle> <line class="cls-3" x1="26.15" y1="34.47" x2="6.96" y2="26.77"></line> <line class="cls-3" x1="27.9" y1="34.18" x2="39.5" y2="25.64"></line> <circle class="cls-4" cx="26.99" cy="34.85" r="25.74"></circle> <line class="cls-5" x1="26.99" y1="9.75" x2="26.99" y2="12.57"></line> <line class="cls-5" x1="49.41" y1="34.85" x2="52.23" y2="34.85"></line> <line class="cls-5" x1="2.16" y1="34.85" x2="4.98" y2="34.85"></line> <line class="cls-5" x1="26.99" y1="56.79" x2="26.99" y2="59.6"></line> <polyline class="cls-6" points="26.99 27.26 31.86 24.45 36.73 21.63 31.86 18.82 26.99 16.01"></polyline> </g> </g> </svg> 