<?xml version="1.0" encoding="UTF-8"?> <svg xmlns="http://www.w3.org/2000/svg" viewBox="0 0 75.78 60.78"> <defs> <style>.cls-1,.cls-2,.cls-5{fill:none;stroke-linejoin:round;}.cls-1,.cls-2,.cls-4,.cls-5{stroke:#10487a;}.cls-1,.cls-2{stroke-linecap:round;}.cls-1{stroke-width:2.5px;}.cls-2{stroke-width:2px;}.cls-3,.cls-4{fill:#10487a;}.cls-4{stroke-miterlimit:10;}</style> </defs> <title>Measure</title> <g id="Layer_2" data-name="Layer 2"> <g id="Icons"> <rect class="cls-1" x="1.27" y="1.84" width="46.97" height="54.89"></rect> <polygon class="cls-2" points="48.19 56.73 1 56.73 3.26 59.78 51.11 59.78 48.19 56.73"></polygon> <rect class="cls-3" x="24.2" y="1.84" width="1.12" height="55.3"></rect> <rect class="cls-4" x="24.76" y="-2.91" height="46.97" transform="translate(4.18 45.33) rotate(-90)"></rect> <rect class="cls-4" x="24.76" y="15.38" height="46.97" transform="translate(-14.1 63.62) rotate(-90)"></rect> <rect class="cls-5" x="62.28" y="0.5" width="13" height="56.23"></rect> <line class="cls-5" x1="62.28" y1="7.43" x2="70.95" y2="7.43"></line> <line class="cls-5" x1="62.28" y1="11.69" x2="66.61" y2="11.69"></line> <line class="cls-5" x1="62.28" y1="20.21" x2="66.61" y2="20.21"></line> <line class="cls-5" x1="62.28" y1="28.73" x2="66.61" y2="28.73"></line> <line class="cls-5" x1="62.28" y1="37.25" x2="66.61" y2="37.25"></line> <line class="cls-5" x1="62.28" y1="45.77" x2="66.61" y2="45.77"></line> <line class="cls-5" x1="62.28" y1="15.95" x2="70.95" y2="15.95"></line> <line class="cls-5" x1="62.28" y1="24.47" x2="70.95" y2="24.47"></line> <line class="cls-5" x1="62.28" y1="32.99" x2="70.95" y2="32.99"></line> <line class="cls-5" x1="62.28" y1="41.51" x2="70.95" y2="41.51"></line> <line class="cls-5" x1="62.28" y1="50.03" x2="70.95" y2="50.03"></line> </g> </g> </svg> 