<?xml version="1.0" encoding="UTF-8"?> <svg xmlns="http://www.w3.org/2000/svg" viewBox="0 0 55.78 61.52"> <defs> <style>.cls-1{fill:#10487a;}</style> </defs> <title>Thermal</title> <g id="Layer_2" data-name="Layer 2"> <g id="Icons"> <ellipse class="cls-1" cx="27.96" cy="53.41" rx="4.5" ry="4"></ellipse> <path class="cls-1" d="M25.06,47.91V4.3a2.23,2.23,0,0,1,2.22-2.23h1.48A2.23,2.23,0,0,1,31,4.3V47.91a7.82,7.82,0,0,1,2.07,1.19V4.3A4.31,4.31,0,0,0,28.76,0H27.28A4.3,4.3,0,0,0,23,4.3V49.1A7.82,7.82,0,0,1,25.06,47.91Z" transform="translate(-0.07)"></path> <rect class="cls-1" x="26.46" y="24.41" width="3" height="30.83" rx="1.37" ry="1.37"></rect> <rect class="cls-1" x="27.46" y="10.66" width="5" height="1.5" rx="0.75" ry="0.75"></rect> <rect class="cls-1" x="27.46" y="7.66" width="5" height="1.5" rx="0.75" ry="0.75"></rect> <rect class="cls-1" x="27.46" y="13.66" width="5" height="1.5" rx="0.75" ry="0.75"></rect> <rect class="cls-1" x="27.46" y="16.66" width="5" height="1.5" rx="0.75" ry="0.75"></rect> <path class="cls-1" d="M33,46.65l.07,2.45a5.66,5.66,0,0,1,2,4.31c0,3.37-3.14,6.11-7,6.11s-7-2.74-7-6.11a5.88,5.88,0,0,1,2-4.31V46.69a7.93,7.93,0,0,0-4,6.72c0,4.47,4,8.11,9,8.11s9-3.64,9-8.11A7.93,7.93,0,0,0,33,46.65Z" transform="translate(-0.07)"></path> <path class="cls-1" d="M1,13.08c.14-1.11,4.73,1.68,5.8,1.51,1.84-.3,2.21-2.36,4.06-2.5s3.32,1.8,5.54,1.56a4.18,4.18,0,0,0,3.43-2.19c.25-.46-.28-1.11-.77-.77-1.82,1.28-3.59,1.75-5.65.64a6.6,6.6,0,0,0-2-1c-2-.31-2.19,1.11-3.6,2.07-2.6,1.77-3.46-1.35-5.79-1.34-1.36,0-1.9.82-2,2-.06.62.89.6,1,0Z" transform="translate(-0.07)"></path> <path class="cls-1" d="M1,20.28c.14-1.1,4.73,1.69,5.8,1.52,1.84-.3,2.21-2.36,4.06-2.5s3.32,1.8,5.54,1.56a4.18,4.18,0,0,0,3.43-2.19c.25-.46-.28-1.11-.77-.77-1.82,1.28-3.59,1.75-5.65.64a6.6,6.6,0,0,0-2-1c-2-.32-2.19,1.11-3.6,2.06-2.6,1.78-3.46-1.34-5.79-1.33-1.36,0-1.9.82-2,2-.06.63.89.61,1,0Z" transform="translate(-0.07)"></path> <path class="cls-1" d="M18.24,4.32c-1.82,1.28-3.6,1.75-5.65.64a16.85,16.85,0,0,0-2-.85C10.53,4.1,10,4,9.94,4S9,3.88,9,4.69a1.1,1.1,0,0,0,.4.67.82.82,0,0,0,.59.32c2-.16,3.33,1.84,5.54,1.6A4.19,4.19,0,0,0,19,5.09C19.25,4.63,18.72,4,18.24,4.32Z" transform="translate(-0.07)"></path> <path class="cls-1" d="M55.84,13.08c-.11-1.18-.61-2-1.94-2-2.44-.09-3,3.45-5.86,1.33-1.19-.89-1.46-2.13-3.16-2.09a4.24,4.24,0,0,0-2,.76,5.08,5.08,0,0,1-6-.38c-.48-.34-1,.31-.77.77a4.19,4.19,0,0,0,3.44,2.19c2.21.24,3.57-1.72,5.54-1.56s2.21,2.2,4,2.5c1.07.17,5.67-2.62,5.81-1.51.07.6,1,.62,1,0Z" transform="translate(-0.07)"></path> <path class="cls-1" d="M55.84,20.28c-.11-1.18-.61-2-1.94-2-2.44-.1-3,3.44-5.86,1.32-1.19-.88-1.46-2.12-3.16-2.09a4.36,4.36,0,0,0-2,.77,5.08,5.08,0,0,1-6-.38c-.48-.34-1,.31-.77.77a4.19,4.19,0,0,0,3.44,2.19c2.21.24,3.57-1.72,5.54-1.56s2.21,2.2,4,2.5c1.07.17,5.67-2.62,5.81-1.52.07.61,1,.63,1,0Z" transform="translate(-0.07)"></path> <path class="cls-1" d="M37.68,4.32C39.5,5.6,41.27,6.07,43.33,5a16.2,16.2,0,0,1,2-.85c.09,0,.59-.09.69-.08s.89-.15.89.66a1.06,1.06,0,0,1-.4.67.82.82,0,0,1-.58.32c-2-.16-3.34,1.84-5.55,1.6a4.16,4.16,0,0,1-3.43-2.19C36.66,4.63,37.19,4,37.68,4.32Z" transform="translate(-0.07)"></path> </g> </g> </svg> 