<svg xmlns="http://www.w3.org/2000/svg" viewBox="0 0 63.54 70.4"><defs><style>.cls-1,.cls-2{fill:#fff;}.cls-1,.cls-3{stroke:#10487a;stroke-miterlimit:10;stroke-width:2px;}.cls-3{fill:none;}.cls-4{fill:#10487a;}.cls-5{fill:#457fa0;}</style></defs><title>award</title><g id="Layer_2" data-name="Layer 2"><g id="Icons"><polygon class="cls-1" points="61.87 58.6 49.73 58.31 43.02 68.43 26.73 37.21 45.59 27.37 61.87 58.6"/><polygon class="cls-1" points="1.67 58.6 13.81 58.31 20.53 68.43 36.82 37.21 17.96 27.37 1.67 58.6"/><path class="cls-2" d="M9.44,25.88c0,2.17-2.58,4.65-2,6.65s4,2.92,5.08,4.73.08,5.28,1.57,6.77,4.93.51,6.77,1.57,2.67,4.53,4.74,5.09,4.48-2,6.64-2,4.65,2.57,6.65,2,2.93-4,4.74-5.09,5.28-.07,6.77-1.57.5-4.93,1.57-6.77S56.46,34.6,57,32.53s-2-4.48-2-6.65,2.58-4.65,2-6.65-4-2.92-5.08-4.74-.08-5.27-1.57-6.77-4.93-.5-6.77-1.56-2.67-4.53-4.74-5.09-4.48,2-6.65,2-4.64-2.57-6.64-2-2.93,4-4.74,5.09-5.28.07-6.77,1.56-.5,4.94-1.57,6.77S8,17.16,7.4,19.23,9.44,23.71,9.44,25.88Z"/><path class="cls-3" d="M9.44,25.88c0,2.17-2.58,4.65-2,6.65s4,2.92,5.08,4.73.08,5.28,1.57,6.77,4.93.51,6.77,1.57,2.67,4.53,4.74,5.09,4.48-2,6.64-2,4.65,2.57,6.65,2,2.93-4,4.74-5.09,5.28-.07,6.77-1.57.5-4.93,1.57-6.77S56.46,34.6,57,32.53s-2-4.48-2-6.65,2.58-4.65,2-6.65-4-2.92-5.08-4.74-.08-5.27-1.57-6.77-4.93-.5-6.77-1.56-2.67-4.53-4.74-5.09-4.48,2-6.65,2-4.64-2.57-6.64-2-2.93,4-4.74,5.09-5.28.07-6.77,1.56-.5,4.94-1.57,6.77S8,17.16,7.4,19.23,9.44,23.71,9.44,25.88Z"/><circle class="cls-1" cx="32.2" cy="25.88" r="18.38"/><path class="cls-4" d="M25.78,31.7a6.24,6.24,0,0,1,1-12.42,6.24,6.24,0,0,1,1,12.42v1.58h-2Zm0-4.07h2v1.89a4.11,4.11,0,1,0-2,0Z"/><path class="cls-5" d="M44.55,30.06a6.44,6.44,0,0,1-5.12,2.47,6.25,6.25,0,1,1,0-12.5,6.44,6.44,0,0,1,5.12,2.47l-1.83,1.37a3.92,3.92,0,0,0-3.29-1.73,4.14,4.14,0,0,0,0,8.28,4.08,4.08,0,0,0,3.32-1.66Z"/></g></g></svg>