<svg xmlns="http://www.w3.org/2000/svg" viewBox="0 0 76.03 63.5"><defs><style>.cls-1,.cls-2{fill:none;stroke:#10487a;stroke-miterlimit:10;}.cls-1{stroke-width:2px;}.cls-2{stroke-linecap:round;stroke-width:2.5px;}</style></defs><title>choosefabric</title><g id="Layer_2" data-name="Layer 2"><g id="Icons"><g id="Layer_3" data-name="Layer 3"><path class="cls-1" d="M61.43,27.15l0,0,1.59,1.71.36.38-.36-.38-1.59-1.71,0,0-.76-.82.23-.17c.25-.19.59-.5,1-.92a2.21,2.21,0,0,1,2.55-.47,3.52,3.52,0,0,1,.85.53,3.4,3.4,0,0,1,.32.29l1.18,1.28a47.15,47.15,0,0,1,5.59,7.79c1.07,2,1.87,3.67,2.41,4.93l-9.06,8.48Q58.4,42.87,51,43c-2-3.43-.64-4.81,4.22-4.11l-8.66-9.31a2.5,2.5,0,0,1-.22-.28,3.77,3.77,0,0,1-.48-.87,1.91,1.91,0,0,1,2.69-2.51,3.67,3.67,0,0,1,.83.54l.27.24,2.91,3.12,2.71,2.92-2.71-2.92.21-.19c.24-.2.59-.5,1-.92a2.21,2.21,0,0,1,2.56-.47,3.42,3.42,0,0,1,.84.52l.28.24,1.74,1.87L57.49,29l-1-1,.21-.2c.24-.19.59-.5,1-.92a2.21,2.21,0,0,1,2.55-.47,3.52,3.52,0,0,1,.85.53Zm2.18,2.36-.56-.62Z"/></g><line class="cls-2" x1="42.8" y1="8.76" x2="31.67" y2="8.76"/><line class="cls-2" x1="42.8" y1="31.75" x2="31.67" y2="31.75"/><line class="cls-2" x1="42.8" y1="54.74" x2="31.67" y2="54.74"/><line class="cls-2" x1="36.6" y1="14.69" x2="36.6" y2="25.82"/><line class="cls-2" x1="36.6" y1="37.68" x2="36.6" y2="48.81"/><line class="cls-2" x1="46.34" y1="1.25" x2="46.34" y2="12.38"/><line class="cls-2" x1="52.24" y1="19.28" x2="41.12" y2="19.28"/><line class="cls-2" x1="46.34" y1="51.12" x2="46.34" y2="62.25"/><line class="cls-2" x1="22.87" y1="8.76" x2="11.75" y2="8.76"/><line class="cls-2" x1="22.87" y1="31.75" x2="11.75" y2="31.75"/><line class="cls-2" x1="22.87" y1="54.74" x2="11.75" y2="54.74"/><line class="cls-2" x1="16.68" y1="14.69" x2="16.68" y2="25.82"/><line class="cls-2" x1="16.68" y1="37.68" x2="16.68" y2="48.81"/><line class="cls-2" x1="26.13" y1="1.25" x2="26.13" y2="12.38"/><line class="cls-2" x1="32.03" y1="19.28" x2="20.91" y2="19.28"/><line class="cls-2" x1="32.03" y1="44.22" x2="20.91" y2="44.22"/><line class="cls-2" x1="26.13" y1="26.19" x2="26.13" y2="37.31"/><line class="cls-2" x1="26.13" y1="51.12" x2="26.13" y2="62.25"/><line class="cls-2" x1="6.47" y1="1.25" x2="6.47" y2="12.38"/><line class="cls-2" x1="12.38" y1="19.28" x2="1.25" y2="19.28"/><line class="cls-2" x1="12.38" y1="44.22" x2="1.25" y2="44.22"/><line class="cls-2" x1="6.47" y1="26.19" x2="6.47" y2="37.31"/><line class="cls-2" x1="6.47" y1="51.12" x2="6.47" y2="62.25"/></g></g></svg>