<svg xmlns="http://www.w3.org/2000/svg" viewBox="0 0 53.49 63.5"><defs><style>.cls-1{fill:none;stroke:#10487a;stroke-linecap:round;stroke-miterlimit:10;stroke-width:2.5px;}</style></defs><title>Fabric</title><g id="Layer_2" data-name="Layer 2"><g id="Icons"><line class="cls-1" x1="42.8" y1="8.76" x2="31.67" y2="8.76"/><line class="cls-1" x1="42.8" y1="31.75" x2="31.67" y2="31.75"/><line class="cls-1" x1="42.8" y1="54.74" x2="31.67" y2="54.74"/><line class="cls-1" x1="36.6" y1="14.69" x2="36.6" y2="25.82"/><line class="cls-1" x1="36.6" y1="37.68" x2="36.6" y2="48.81"/><line class="cls-1" x1="46.34" y1="1.25" x2="46.34" y2="12.38"/><line class="cls-1" x1="52.24" y1="19.28" x2="41.12" y2="19.28"/><line class="cls-1" x1="52.24" y1="44.22" x2="41.12" y2="44.22"/><line class="cls-1" x1="46.34" y1="26.19" x2="46.34" y2="37.31"/><line class="cls-1" x1="46.34" y1="51.12" x2="46.34" y2="62.25"/><line class="cls-1" x1="22.87" y1="8.76" x2="11.75" y2="8.76"/><line class="cls-1" x1="22.87" y1="31.75" x2="11.75" y2="31.75"/><line class="cls-1" x1="22.87" y1="54.74" x2="11.75" y2="54.74"/><line class="cls-1" x1="16.68" y1="14.69" x2="16.68" y2="25.82"/><line class="cls-1" x1="16.68" y1="37.68" x2="16.68" y2="48.81"/><line class="cls-1" x1="26.13" y1="1.25" x2="26.13" y2="12.38"/><line class="cls-1" x1="32.03" y1="19.28" x2="20.91" y2="19.28"/><line class="cls-1" x1="32.03" y1="44.22" x2="20.91" y2="44.22"/><line class="cls-1" x1="26.13" y1="26.19" x2="26.13" y2="37.31"/><line class="cls-1" x1="26.13" y1="51.12" x2="26.13" y2="62.25"/><line class="cls-1" x1="6.47" y1="1.25" x2="6.47" y2="12.38"/><line class="cls-1" x1="12.38" y1="19.28" x2="1.25" y2="19.28"/><line class="cls-1" x1="12.38" y1="44.22" x2="1.25" y2="44.22"/><line class="cls-1" x1="6.47" y1="26.19" x2="6.47" y2="37.31"/><line class="cls-1" x1="6.47" y1="51.12" x2="6.47" y2="62.25"/></g></g></svg>