<?xml version="1.0" encoding="utf-8"?>
<!-- Generator: Adobe Illustrator 22.1.0, SVG Export Plug-In . SVG Version: 6.00 Build 0)  -->
<svg version="1.1" id="Layer_1" xmlns="http://www.w3.org/2000/svg" xmlns:xlink="http://www.w3.org/1999/xlink" x="0px" y="0px"
	 viewBox="0 0 24 24" style="enable-background:new 0 0 24 24;" xml:space="preserve">
<style type="text/css">
	.st0{fill:#FFFFFF;}
</style>
<path class="st0" d="M12,2C6.5,2,2,6.5,2,12c0,4,2.3,7.6,6,9.2c0-0.7,0-1.5,0.2-2.3s1.3-5.4,1.3-5.4s-0.3-0.6-0.3-1.6
	c0-1.5,0.9-2.6,1.9-2.6c0.9,0,1.3,0.7,1.3,1.5c0,0.9-0.6,2.3-0.9,3.6c-0.2,1.1,0.5,1.9,1.6,1.9c1.9,0,3.2-2.4,3.2-5.3
	c0-2.2-1.5-3.8-4.2-3.8c-3,0-4.9,2.3-4.9,4.8c0,0.9,0.3,1.5,0.7,2C8,14,8.1,14.1,8,14.4c0,0.2-0.2,0.6-0.2,0.8
	c-0.1,0.3-0.3,0.3-0.5,0.2c-1.4-0.6-2-2.1-2-3.8c0-2.8,2.4-6.2,7.1-6.2c3.8,0,6.3,2.8,6.3,5.7c0,3.9-2.2,6.9-5.4,6.9
	c-1.1,0-2.1-0.6-2.4-1.2c0,0-0.6,2.3-0.7,2.7c-0.2,0.8-0.6,1.5-1,2.1C10.1,21.9,11,22,12,22c5.5,0,10-4.5,10-10S17.5,2,12,2"/>
</svg>
