<svg xmlns="http://www.w3.org/2000/svg" xmlns:xlink="http://www.w3.org/1999/xlink" viewBox="0 0 585 585"><defs><style>.cls-1{fill:url(#radial-gradient);}.cls-2{fill:none;}.cls-3{isolation:isolate;}.cls-4{mix-blend-mode:screen;}.cls-5{clip-path:url(#clip-path);}.cls-6{clip-path:url(#clip-path-2);}.cls-7{mask:url(#mask);}.cls-8{fill:url(#radial-gradient-2);}</style><radialGradient id="radial-gradient" cx="2889.17" cy="1888.28" r="1.56" gradientTransform="matrix(187, 0, 0, -187, -539982.18, 353400.12)" gradientUnits="userSpaceOnUse"><stop offset="0" stop-color="#fff"/><stop offset="0" stop-color="#fff"/><stop offset="0.06" stop-color="#f0f0f0"/><stop offset="0.53" stop-color="#707070"/><stop offset="0.85" stop-color="#202020"/><stop offset="1"/></radialGradient><clipPath id="clip-path" transform="translate(0 0)"><rect class="cls-2" width="585" height="585"/></clipPath><clipPath id="clip-path-2" transform="translate(0 0)"><path class="cls-2" d="M292.5,316.37a23.87,23.87,0,1,1,23.87-23.87,23.9,23.9,0,0,1-23.87,23.87m0-45.38A21.51,21.51,0,1,0,314,292.5,21.53,21.53,0,0,0,292.5,271m0,49.92a28.41,28.41,0,1,1,28.41-28.41,28.44,28.44,0,0,1-28.41,28.41m0-54.45a26,26,0,1,0,26,26,26.07,26.07,0,0,0-26-26m0,59.9a33.86,33.86,0,1,1,33.86-33.86,33.9,33.9,0,0,1-33.86,33.86m0-65.35A31.49,31.49,0,1,0,324,292.5,31.53,31.53,0,0,0,292.5,261m0,71.88a40.39,40.39,0,1,1,40.39-40.39,40.44,40.44,0,0,1-40.39,40.39m0-78.42a38,38,0,1,0,38,38,38.07,38.07,0,0,0-38-38m0,86.26a48.23,48.23,0,1,1,48.23-48.23,48.29,48.29,0,0,1-48.23,48.23m0-94.1a45.87,45.87,0,1,0,45.87,45.87,45.92,45.92,0,0,0-45.87-45.87m0,103.51a57.64,57.64,0,1,1,57.64-57.64,57.71,57.71,0,0,1-57.64,57.64m0-112.92a55.28,55.28,0,1,0,55.28,55.28,55.34,55.34,0,0,0-55.28-55.28m0,124.21a68.93,68.93,0,1,1,68.93-68.93,69,69,0,0,1-68.93,68.93m0-135.5a66.57,66.57,0,1,0,66.57,66.57,66.65,66.65,0,0,0-66.57-66.57m0,149.05A82.48,82.48,0,1,1,375,292.5,82.58,82.58,0,0,1,292.5,375m0-162.6a80.12,80.12,0,1,0,80.12,80.12,80.21,80.21,0,0,0-80.12-80.12m0,178.86a98.74,98.74,0,1,1,98.74-98.74,98.86,98.86,0,0,1-98.74,98.74m0-195.13a96.38,96.38,0,1,0,96.38,96.38,96.49,96.49,0,0,0-96.38-96.38m0,214.64A118.26,118.26,0,1,1,410.76,292.5,118.39,118.39,0,0,1,292.5,410.76m0-234.15A115.89,115.89,0,1,0,408.39,292.5,116,116,0,0,0,292.5,176.61m0,257.56c-78.12,0-141.67-63.55-141.67-141.67S214.38,150.83,292.5,150.83,434.17,214.38,434.17,292.5,370.62,434.17,292.5,434.17m0-281c-76.81,0-139.31,62.49-139.31,139.31S215.69,431.81,292.5,431.81,431.81,369.31,431.81,292.5,369.31,153.19,292.5,153.19m0,309.08c-93.61,0-169.77-76.16-169.77-169.77S198.89,122.73,292.5,122.73,462.27,198.89,462.27,292.5,386.11,462.27,292.5,462.27m0-337.17c-92.31,0-167.41,75.1-167.41,167.4s75.1,167.4,167.41,167.4,167.41-75.1,167.41-167.4S384.81,125.1,292.5,125.1m0,370.89C180.3,496,89,404.7,89,292.5S180.3,89,292.5,89,496,180.3,496,292.5,404.7,496,292.5,496m0-404.61C181.6,91.38,91.38,181.6,91.38,292.5S181.6,493.62,292.5,493.62,493.62,403.4,493.62,292.5,403.4,91.38,292.5,91.38m0,445.07C158,536.45,48.55,427,48.55,292.5S158,48.55,292.5,48.55,536.45,158,536.45,292.5,427,536.45,292.5,536.45m0-485.53C159.29,50.92,50.92,159.29,50.92,292.5S159.29,534.08,292.5,534.08,534.08,425.71,534.08,292.5,425.71,50.92,292.5,50.92m0,534.08C131.22,585,0,453.78,0,292.5S131.22,0,292.5,0,585,131.22,585,292.5,453.78,585,292.5,585m0-582.64C132.52,2.36,2.36,132.52,2.36,292.5S132.52,582.64,292.5,582.64,582.64,452.48,582.64,292.5,452.48,2.36,292.5,2.36"/></clipPath><mask id="mask" x="0" y="0" width="585" height="585" maskUnits="userSpaceOnUse"><g transform="translate(0 0)"><rect class="cls-1" width="585" height="585"/></g></mask><radialGradient id="radial-gradient-2" cx="2889.17" cy="1888.28" r="1.56" gradientTransform="matrix(187, 0, 0, -187, -539982.18, 353400.12)" gradientUnits="userSpaceOnUse"><stop offset="0" stop-color="#2b5a8e"/><stop offset="0" stop-color="#2b5a8e"/><stop offset="1" stop-color="#224776"/></radialGradient></defs><title>Asset 1</title><g class="cls-3"><g id="Layer_2" data-name="Layer 2"><g id="Product_page" data-name="Product page"><g class="cls-4"><g class="cls-5"><g class="cls-6"><g class="cls-7"><rect class="cls-8" width="585" height="585"/></g></g></g></g></g></g></g></svg>