<svg xmlns="http://www.w3.org/2000/svg" viewBox="0 0 37.48 31.61"><defs><style>.cls-1{fill:none;stroke:#11487a;stroke-miterlimit:10;stroke-width:1.39px;}</style></defs><title>quote@2x</title><g id="Layer_2" data-name="Layer 2"><g id="Home"><path class="cls-1" d="M1.37,24.61a15.67,15.67,0,0,0,3.81-3.12,8.14,8.14,0,0,0,2.19-4.15,8.41,8.41,0,0,1-4.9-3.08A8.24,8.24,0,0,1,.7,9.15a8.18,8.18,0,0,1,2.45-6A8,8,0,0,1,9.06.7a8.47,8.47,0,0,1,6.13,2.41,8.89,8.89,0,0,1,2.49,6.71,25.4,25.4,0,0,1-2.91,11.92,24.23,24.23,0,0,1-7.9,9Zm19.1,0a15.63,15.63,0,0,0,3.8-3.12,8.09,8.09,0,0,0,2.2-4.15,8.41,8.41,0,0,1-4.9-3.08,8.25,8.25,0,0,1-1.78-5.11,8.19,8.19,0,0,1,2.46-6A8,8,0,0,1,28.16.7a8.47,8.47,0,0,1,6.13,2.41,8.89,8.89,0,0,1,2.49,6.71,25.4,25.4,0,0,1-2.91,11.92,24.17,24.17,0,0,1-7.91,9Z"/></g></g></svg>