<svg xmlns="http://www.w3.org/2000/svg" viewBox="0 0 72.08 63.1"><defs><style>.cls-1,.cls-3,.cls-4{fill:none;stroke:#10487a;}.cls-1,.cls-4{stroke-linejoin:round;}.cls-1{stroke-width:2px;}.cls-2{fill:#10487a;}.cls-3{stroke-miterlimit:10;stroke-width:0.8px;}.cls-4{stroke-linecap:round;}</style></defs><title>Ship</title><g id="Layer_2" data-name="Layer 2"><g id="Icons"><rect class="cls-1" x="15.33" y="13.46" width="14.91" height="48.64"/><rect class="cls-1" x="14.08" y="5.81" width="17.41" height="4.58"/><rect class="cls-2" x="20.78" y="4.43" width="4.01" height="57.52"/><path class="cls-3" d="M26.16,1.52A1.6,1.6,0,0,0,24.24.46a2.78,2.78,0,0,0-1.52,1.42A2.47,2.47,0,0,0,21.33.46a1.69,1.69,0,0,0-1.91,1.06c-.48,1.63,2.64,2.72,3.3,2.93v0l.07,0,.06,0v0C23.51,4.24,26.64,3.15,26.16,1.52Z"/><path class="cls-3" d="M23.14,4.47s6-.52,6.9-2"/><path class="cls-3" d="M22.67,4.47s-6-.52-6.91-2"/><line class="cls-4" x1="11.82" y1="27.84" x2="0.5" y2="27.84"/><polygon class="cls-2" points="11.82 30.52 2.46 30.02 11.82 29.52 11.82 30.52"/><polygon class="cls-2" points="11.82 32.49 2.46 31.99 11.82 31.49 11.82 32.49"/><line class="cls-4" x1="11.82" y1="34.01" x2="0.5" y2="34.01"/><line class="cls-4" x1="52.9" y1="27.84" x2="33.02" y2="27.84"/><polygon class="cls-2" points="33.02 29.52 49.45 30.02 33.02 30.52 33.02 29.52"/><polygon class="cls-2" points="33.02 31.49 49.45 31.99 33.02 32.49 33.02 31.49"/><line class="cls-4" x1="52.9" y1="34.01" x2="33.02" y2="34.01"/><polyline class="cls-4" points="45.05 36.92 58.31 33.97 71.58 31.01 58.31 28.06 45.05 25.11"/></g></g></svg>