<svg xmlns="http://www.w3.org/2000/svg" viewBox="0 0 53.7 58.26"><defs><style>.cls-1,.cls-2{fill:none;stroke:#10487a;stroke-linecap:round;stroke-linejoin:bevel;}.cls-1{stroke-width:1.8px;}.cls-2{stroke-width:2px;}.cls-3{fill:#10487a;}</style></defs><title>soundproof_2</title><g id="Layer_2" data-name="Layer 2"><g id="Home"><path class="cls-1" d="M22.6,20.53a10.2,10.2,0,0,1-.48,17.25" transform="translate(0 -0.03)"/><path class="cls-1" d="M24.2,16.47a15,15,0,0,1-.7,25.38" transform="translate(0 -0.03)"/><path class="cls-1" d="M26.14,12.83a19.32,19.32,0,0,1-.9,32.66" transform="translate(0 -0.03)"/><path class="cls-2" d="M1,38.31H3.42a5.75,5.75,0,0,1,2,.24c.15.14.87.75,1.59,1.37l8.65,7.39c.73.62,1.32.34,1.32-.61V11.61c0-.95-.59-1.22-1.32-.6L7,18.4,5.44,19.76a5.75,5.75,0,0,1-2,.24H1" transform="translate(0 -0.03)"/><path class="cls-3" d="M52.07,2.44V57.5a.82.82,0,0,0,1.63,0V2.44a.82.82,0,0,0-1.63,0Z" transform="translate(0 -0.03)"/><path class="cls-3" d="M50.44,1.63V56.69a.82.82,0,0,0,1.63,0V1.63a.82.82,0,0,0-1.63,0Z" transform="translate(0 -0.03)"/><path class="cls-3" d="M48.81.81V55.87a.82.82,0,0,0,1.63,0V.81a.82.82,0,0,0-1.63,0Z" transform="translate(0 -0.03)"/></g></g></svg>