<?xml version="1.0" encoding="utf-8"?>
<!-- Generator: Adobe Illustrator 22.1.0, SVG Export Plug-In . SVG Version: 6.00 Build 0)  -->
<svg version="1.1" id="Layer_1" xmlns="http://www.w3.org/2000/svg" xmlns:xlink="http://www.w3.org/1999/xlink" x="0px" y="0px"
	 viewBox="0 0 24 24" style="enable-background:new 0 0 24 24;" xml:space="preserve">
<style type="text/css">
	.st0{fill:#FFFFFF;}
</style>
<path class="st0" d="M23.1,5.1c-0.8,0.4-1.7,0.6-2.6,0.7c0.9-0.6,1.7-1.5,2-2.5c-0.9,0.5-1.9,0.9-2.9,1.1C18.7,3.5,17.5,3,16.3,3
	c-2.5,0-4.5,2-4.5,4.5c0,0,0,0,0,0c0,0.4,0,0.7,0.1,1c-3.8-0.2-7.1-2-9.4-4.7C2.1,4.5,1.9,5.3,1.9,6.1c0,1.6,0.8,3,2,3.8
	c-0.7,0-1.4-0.2-2.1-0.6l0,0.1c0,2.2,1.5,4,3.6,4.5c-0.7,0.2-1.4,0.2-2.1,0.1C4,15.8,5.7,17,7.7,17.1c-1.9,1.5-4.3,2.2-6.7,1.9
	c2.1,1.3,4.5,2,7,2c8.4,0,12.9-6.9,12.9-12.9c0-0.2,0-0.4,0-0.6C21.7,6.8,22.5,6,23.1,5.1"/>
</svg>
