<svg xmlns="http://www.w3.org/2000/svg" viewBox="0 0 47.43 63"><defs><style>.cls-1{fill:#10487a;}.cls-2{fill:#fff;}</style></defs><title>USA</title><g id="Layer_2" data-name="Layer 2"><g id="Icons"><path class="cls-1" d="M23.75,0h4a0,0,0,0,1,0,0V61a2,2,0,0,1-2,2h0a2,2,0,0,1-2-2V0A0,0,0,0,1,23.75,0Z"/><path class="cls-1" d="M31.43,0h4a0,0,0,0,1,0,0V61a2,2,0,0,1-2,2h0a2,2,0,0,1-2-2V0A0,0,0,0,1,31.43,0Z"/><path class="cls-1" d="M39.43,0h4a0,0,0,0,1,0,0V61a2,2,0,0,1-2,2h0a2,2,0,0,1-2-2V0A0,0,0,0,1,39.43,0Z"/><path class="cls-1" d="M15.87,0h4a0,0,0,0,1,0,0V61a2,2,0,0,1-2,2h0a2,2,0,0,1-2-2V0A0,0,0,0,1,15.87,0Z"/><path class="cls-1" d="M8,0h4a0,0,0,0,1,0,0V61a2,2,0,0,1-2,2h0a2,2,0,0,1-2-2V0A0,0,0,0,1,8,0Z"/><path class="cls-1" d="M0,0H4A0,0,0,0,1,4,0V61a2,2,0,0,1-2,2H2a2,2,0,0,1-2-2V0A0,0,0,0,1,0,0Z"/><rect class="cls-1" x="23.75" width="23.68" height="22.83"/><polygon class="cls-2" points="29.9 4.71 28.59 5.36 28.37 6.82 27.35 5.76 25.9 6.01 26.59 4.71 25.9 3.41 27.35 3.66 28.37 2.61 28.59 4.06 29.9 4.71"/><polygon class="cls-2" points="29.9 11.41 28.59 12.06 28.37 13.52 27.35 12.46 25.9 12.71 26.59 11.41 25.9 10.11 27.35 10.36 28.37 9.31 28.59 10.76 29.9 11.41"/><polygon class="cls-2" points="29.9 18.11 28.59 18.76 28.37 20.22 27.35 19.16 25.9 19.41 26.59 18.11 25.9 16.81 27.35 17.06 28.37 16.01 28.59 17.46 29.9 18.11"/><polygon class="cls-2" points="37.47 4.71 36.16 5.36 35.95 6.82 34.92 5.76 33.47 6.01 34.16 4.71 33.47 3.41 34.92 3.66 35.95 2.61 36.16 4.06 37.47 4.71"/><polygon class="cls-2" points="37.47 11.41 36.16 12.06 35.95 13.52 34.92 12.46 33.47 12.71 34.16 11.41 33.47 10.11 34.92 10.36 35.95 9.31 36.16 10.76 37.47 11.41"/><polygon class="cls-2" points="37.47 18.11 36.16 18.76 35.95 20.22 34.92 19.16 33.47 19.41 34.16 18.11 33.47 16.81 34.92 17.06 35.95 16.01 36.16 17.46 37.47 18.11"/><polygon class="cls-2" points="45.05 4.71 43.73 5.36 43.52 6.82 42.49 5.76 41.05 6.01 41.73 4.71 41.05 3.41 42.49 3.66 43.52 2.61 43.73 4.06 45.05 4.71"/><polygon class="cls-2" points="45.05 11.41 43.73 12.06 43.52 13.52 42.49 12.46 41.05 12.71 41.73 11.41 41.05 10.11 42.49 10.36 43.52 9.31 43.73 10.76 45.05 11.41"/><polygon class="cls-2" points="45.05 18.11 43.73 18.76 43.52 20.22 42.49 19.16 41.05 19.41 41.73 18.11 41.05 16.81 42.49 17.06 43.52 16.01 43.73 17.46 45.05 18.11"/></g></g></svg>