<?xml version="1.0" encoding="utf-8"?>
<!-- Generator: Adobe Illustrator 21.1.0, SVG Export Plug-In . SVG Version: 6.00 Build 0)  -->
<svg version="1.1" id="Layer_1" xmlns="http://www.w3.org/2000/svg" xmlns:xlink="http://www.w3.org/1999/xlink" x="0px" y="0px"
	 viewBox="0 0 28 24" style="enable-background:new 0 0 28 24;" xml:space="preserve">
<style type="text/css">
	.st0{fill:#FFFFFF;}
</style>
<path class="st0" d="M26.5,6.9c0,0-0.2-1.8-1-2.5c-1-1-2.1-1-2.6-1.1C19.4,3,14,3,14,3h0c0,0-5.4,0-9,0.3C4.5,3.3,3.4,3.3,2.5,4.3
	c-0.8,0.8-1,2.5-1,2.5S1.2,9,1.2,11V13c0,2.1,0.3,4.1,0.3,4.1s0.2,1.8,1,2.5c1,1,2.3,1,2.8,1.1C7.3,20.9,14,21,14,21s5.4,0,9-0.3
	c0.5-0.1,1.6-0.1,2.6-1.1c0.8-0.8,1-2.5,1-2.5s0.3-2.1,0.3-4.1V11C26.8,9,26.5,6.9,26.5,6.9 M11.4,15.3l0-7.2l6.9,3.6
	C18.3,11.7,11.4,15.3,11.4,15.3z"/>
</svg>
